<svg width="24" height="24" viewBox="0 0 24 24" fill="none" xmlns="http://www.w3.org/2000/svg">
<g clip-path="url(#clip0_80_138)">
<path d="M12 22.81C11.6458 22.8019 11.2984 22.7108 10.9858 22.5441C10.6732 22.3774 10.404 22.1396 10.2 21.85L8.7 19.85C8.64231 19.8011 8.57371 19.7668 8.5 19.75H8C3.83 19.75 1.25 18.62 1.25 13V8C1.25 3.58 3.58 1.25 8 1.25H16C20.42 1.25 22.75 3.58 22.75 8V13C22.75 17.42 20.42 19.75 16 19.75H15.5C15.4613 19.7508 15.4233 19.7602 15.3887 19.7775C15.3542 19.7948 15.3238 19.8196 15.3 19.85L13.8 21.85C13.596 22.1396 13.3268 22.3774 13.0142 22.5441C12.7016 22.7108 12.3542 22.8019 12 22.81ZM8 2.75C4.42 2.75 2.75 4.42 2.75 8V13C2.75 17.52 4.3 18.25 8 18.25H8.5C8.77 18.259 9.03487 18.3262 9.27649 18.447C9.51812 18.5678 9.7308 18.7394 9.9 18.95L11.4 20.95C11.461 21.055 11.5486 21.1422 11.6539 21.2028C11.7592 21.2633 11.8785 21.2952 12 21.2952C12.1215 21.2952 12.2408 21.2633 12.3461 21.2028C12.4514 21.1422 12.539 21.055 12.6 20.95L14.1 18.95C14.2631 18.7328 14.4745 18.5564 14.7175 18.435C14.9605 18.3135 15.2283 18.2502 15.5 18.25H16C19.58 18.25 21.25 16.58 21.25 13V8C21.25 4.42 19.58 2.75 16 2.75H8Z" fill="#0D0D0D"/>
<path d="M12 12C11.8022 12 11.6089 11.9414 11.4444 11.8315C11.28 11.7216 11.1518 11.5654 11.0761 11.3827C11.0004 11.2 10.9806 10.9989 11.0192 10.8049C11.0578 10.6109 11.153 10.4327 11.2929 10.2929C11.4327 10.153 11.6109 10.0578 11.8049 10.0192C11.9989 9.98063 12.2 10.0004 12.3827 10.0761C12.5654 10.1518 12.7216 10.28 12.8315 10.4444C12.9414 10.6089 13 10.8022 13 11C13 11.2652 12.8946 11.5196 12.7071 11.7071C12.5196 11.8946 12.2652 12 12 12Z" fill="#0D0D0D"/>
<path d="M16 12C15.8022 12 15.6089 11.9414 15.4444 11.8315C15.28 11.7216 15.1518 11.5654 15.0761 11.3827C15.0004 11.2 14.9806 10.9989 15.0192 10.8049C15.0578 10.6109 15.153 10.4327 15.2929 10.2929C15.4327 10.153 15.6109 10.0578 15.8049 10.0192C15.9989 9.98063 16.2 10.0004 16.3827 10.0761C16.5654 10.1518 16.7216 10.28 16.8315 10.4444C16.9414 10.6089 17 10.8022 17 11C17 11.2652 16.8946 11.5196 16.7071 11.7071C16.5196 11.8946 16.2652 12 16 12Z" fill="#0D0D0D"/>
<path d="M8 12C7.80222 12 7.60888 11.9414 7.44443 11.8315C7.27998 11.7216 7.15181 11.5654 7.07612 11.3827C7.00043 11.2 6.98063 10.9989 7.01922 10.8049C7.0578 10.6109 7.15304 10.4327 7.29289 10.2929C7.43275 10.153 7.61093 10.0578 7.80491 10.0192C7.99889 9.98063 8.19996 10.0004 8.38268 10.0761C8.56541 10.1518 8.72159 10.28 8.83147 10.4444C8.94135 10.6089 9 10.8022 9 11C9 11.2652 8.89464 11.5196 8.70711 11.7071C8.51957 11.8946 8.26522 12 8 12Z" fill="#0D0D0D"/>
</g>
<defs>
<clipPath id="clip0_80_138">
<rect width="24" height="24" fill="white"/>
</clipPath>
</defs>
</svg>
