<svg width="24" height="24" viewBox="0 0 24 24" fill="none" xmlns="http://www.w3.org/2000/svg">
<g clip-path="url(#clip0_20_309)">
<path d="M15 22.75H9C4.59 22.75 3.25 21.41 3.25 17V7C3.25 2.59 4.59 1.25 9 1.25H15C19.41 1.25 20.75 2.59 20.75 7V17C20.75 21.41 19.41 22.75 15 22.75ZM9 2.75C5.42 2.75 4.75 3.43 4.75 7V17C4.75 20.57 5.42 21.25 9 21.25H15C18.58 21.25 19.25 20.57 19.25 17V7C19.25 3.43 18.58 2.75 15 2.75H9Z" fill="#0D0D0D"/>
<path d="M14 6.25H10C9.80149 6.24869 9.61149 6.16925 9.47112 6.02888C9.33075 5.88851 9.25131 5.69851 9.25 5.5C9.25131 5.30149 9.33075 5.11149 9.47112 4.97112C9.61149 4.83075 9.80149 4.75131 10 4.75H14C14.1985 4.75131 14.3885 4.83075 14.5289 4.97112C14.6693 5.11149 14.7487 5.30149 14.75 5.5C14.7487 5.69851 14.6693 5.88851 14.5289 6.02888C14.3885 6.16925 14.1985 6.24869 14 6.25Z" fill="#0D0D0D"/>
<path d="M12 19.8598C11.5451 19.8598 11.1004 19.7249 10.7222 19.4721C10.344 19.2194 10.0492 18.8602 9.87508 18.4399C9.70099 18.0197 9.65545 17.5572 9.74419 17.1111C9.83294 16.6649 10.052 16.2551 10.3737 15.9334C10.6953 15.6118 11.1051 15.3927 11.5513 15.304C11.9974 15.2152 12.4599 15.2608 12.8802 15.4348C13.3004 15.6089 13.6597 15.9037 13.9124 16.282C14.1651 16.6602 14.3 17.1049 14.3 17.5598C14.3 18.1698 14.0577 18.7548 13.6263 19.1861C13.195 19.6174 12.61 19.8598 12 19.8598ZM12 16.7498C11.8418 16.7498 11.6871 16.7967 11.5555 16.8846C11.424 16.9725 11.3214 17.0974 11.2609 17.2436C11.2003 17.3898 11.1845 17.5507 11.2154 17.7058C11.2462 17.861 11.3224 18.0036 11.4343 18.1155C11.5462 18.2273 11.6887 18.3035 11.8439 18.3344C11.9991 18.3653 12.16 18.3494 12.3061 18.2889C12.4523 18.2283 12.5773 18.1258 12.6652 17.9942C12.7531 17.8627 12.8 17.708 12.8 17.5498C12.8 17.3376 12.7157 17.1341 12.5657 16.9841C12.4157 16.8341 12.2122 16.7498 12 16.7498Z" fill="#0D0D0D"/>
</g>
<defs>
<clipPath id="clip0_20_309">
<rect width="24" height="24" fill="white"/>
</clipPath>
</defs>
</svg>
