<svg width="31" height="30" viewBox="0 0 31 30" fill="none" xmlns="http://www.w3.org/2000/svg">
<g clip-path="url(#clip0_80_169)">
<path d="M27.1662 8.88961C27.1853 9.1561 27.1853 9.42264 27.1853 9.68912C27.1853 17.8172 20.9988 27.1828 9.69162 27.1828C6.20811 27.1828 2.97209 26.1738 0.25 24.4226C0.744941 24.4797 1.22078 24.4988 1.73477 24.4988C4.60908 24.4988 7.25506 23.528 9.36801 21.8719C6.66496 21.8147 4.39973 20.0445 3.61926 17.6079C4 17.665 4.38068 17.703 4.78047 17.703C5.33248 17.703 5.88455 17.6269 6.39848 17.4937C3.58123 16.9226 1.46822 14.448 1.46822 11.4594V11.3833C2.28672 11.8402 3.23857 12.1257 4.24738 12.1637C2.59129 11.0596 1.50631 9.17514 1.50631 7.04315C1.50631 5.90104 1.81082 4.85408 2.34385 3.94037C5.37051 7.67133 9.92002 10.1078 15.0215 10.3744C14.9263 9.91752 14.8692 9.44168 14.8692 8.96578C14.8692 5.57742 17.6103 2.81731 21.0177 2.81731C22.788 2.81731 24.3869 3.55969 25.5101 4.75893C26.8996 4.49244 28.2321 3.97846 29.4123 3.27416C28.9554 4.70186 27.9846 5.9011 26.7093 6.66246C27.9466 6.52928 29.1459 6.18656 30.2499 5.71072C29.4125 6.92895 28.3654 8.01393 27.1662 8.88961Z" fill="#0D0D0D"/>
</g>
<defs>
<clipPath id="clip0_80_169">
<rect width="30" height="30" fill="white" transform="translate(0.25)"/>
</clipPath>
</defs>
</svg>
