<svg width="35" height="30" viewBox="0 0 35 30" fill="none" xmlns="http://www.w3.org/2000/svg">
<path d="M32.7064 7.27049C32.3383 5.88475 31.254 4.79338 29.8772 4.42301C27.3817 3.75 17.375 3.75 17.375 3.75C17.375 3.75 7.36838 3.75 4.87281 4.42301C3.49604 4.79344 2.4117 5.88475 2.04367 7.27049C1.375 9.78223 1.375 15.0227 1.375 15.0227C1.375 15.0227 1.375 20.2632 2.04367 22.775C2.4117 24.1607 3.49604 25.2066 4.87281 25.577C7.36838 26.25 17.375 26.25 17.375 26.25C17.375 26.25 27.3817 26.25 29.8772 25.577C31.254 25.2066 32.3383 24.1607 32.7064 22.775C33.375 20.2632 33.375 15.0227 33.375 15.0227C33.375 15.0227 33.375 9.78223 32.7064 7.27049ZM14.1023 19.7807V10.2647L22.4659 15.0229L14.1023 19.7807Z" fill="#0D0D0D"/>
</svg>
